<?xml version="1.0" standalone="no"?>
<!DOCTYPE svg PUBLIC "-//W3C//DTD SVG 20010904//EN"
 "http://www.w3.org/TR/2001/REC-SVG-20010904/DTD/svg10.dtd">
<svg version="1.0" xmlns="http://www.w3.org/2000/svg"
 width="1080.000000pt" height="1080.000000pt" viewBox="0 0 1080.000000 1080.000000"
 preserveAspectRatio="xMidYMid meet">

<g transform="translate(0.000000,1080.000000) scale(0.100000,-0.100000)"
fill="#000000" stroke="none">
<path d="M8983 10340 c-177 -3 -256 -9 -264 -17 -22 -22 -28 -104 -28 -374
l-1 -265 -32 -31 c-18 -17 -53 -41 -77 -53 -110 -55 -86 -53 -696 -60 -599 -8
-652 -12 -805 -59 -160 -50 -316 -182 -389 -331 -74 -152 -72 -125 -80 -1065
-7 -808 -8 -842 -28 -891 -54 -136 -147 -216 -304 -261 -61 -17 -159 -18
-2004 -19 -1067 0 -1989 -4 -2050 -8 -190 -13 -372 -51 -511 -108 -246 -101
-488 -404 -649 -812 -31 -79 -75 -247 -68 -258 2 -5 231 -8 509 -8 l504 0 0
-766 c0 -428 5 -830 10 -912 52 -732 338 -1389 824 -1889 264 -273 536 -468
889 -638 171 -82 297 -133 444 -180 130 -41 335 -95 360 -95 l23 0 0 949 0
950 -58 44 c-210 162 -359 419 -418 722 -16 81 -18 181 -21 953 l-4 862 299 0
c294 0 300 0 332 -23 18 -12 43 -35 54 -50 l21 -28 -1 -2215 c-1 -2022 0
-2214 15 -2215 313 -15 646 115 868 339 150 152 264 373 314 609 39 187 41
290 37 1915 l-3 1566 21 29 c11 15 36 38 54 51 l33 22 543 0 c850 0 1025 20
1284 150 339 169 556 441 649 815 39 158 41 215 41 1465 0 802 4 1228 10 1252
13 46 78 129 122 156 31 18 56 20 350 27 236 5 322 11 335 20 17 12 18 41 21
363 2 317 1 350 -14 363 -20 16 -79 17 -461 9z"/>
<path d="M7737 9982 c-14 -15 -17 -42 -17 -160 0 -129 2 -142 19 -152 11 -5
78 -10 149 -10 168 0 162 -6 162 166 0 180 6 174 -164 174 -116 0 -135 -2
-149 -18z"/>
<path d="M2445 9540 c-165 -4 -330 -8 -367 -9 l-68 -1 0 -1221 0 -1221 28 6
c73 15 511 26 1227 29 l790 4 3 799 c3 980 1 1008 -94 1204 -39 80 -60 109
-133 180 -65 65 -104 94 -161 122 -234 114 -379 126 -1225 108z"/>
<path d="M8982 9198 c-16 -16 -17 -224 -1 -234 6 -3 57 -6 114 -6 57 0 108 3
114 6 16 10 15 218 -1 234 -8 8 -48 12 -113 12 -65 0 -105 -4 -113 -12z"/>
<path d="M9428 8859 c-16 -9 -18 -26 -18 -128 l0 -118 38 -7 c58 -9 171 -7
193 4 17 10 19 22 19 129 l0 118 -46 7 c-69 9 -167 7 -186 -5z"/>
<path d="M8933 8460 c-22 -9 -23 -14 -23 -128 0 -78 4 -122 12 -130 8 -8 51
-12 125 -12 99 0 115 2 121 18 9 23 8 240 -2 249 -11 12 -208 14 -233 3z"/>
<path d="M8555 6158 c-83 -127 -270 -316 -394 -397 -178 -115 -334 -180 -530
-221 -163 -33 -270 -39 -658 -40 l-361 0 -5 -747 c-5 -831 -5 -840 -73 -1043
-57 -171 -169 -354 -288 -470 l-46 -44 0 -376 c0 -594 -33 -791 -181 -1080
-117 -230 -276 -400 -494 -527 -36 -21 -65 -40 -65 -43 0 -7 269 7 380 20 496
58 977 234 1393 509 741 490 1193 1187 1342 2065 42 248 46 393 43 1474 l-3
1012 -60 -92z"/>
</g>
</svg>
